# xmcd
#
# Track frame offsets:
#	150
#	16141
#	32299
#	48249
#	63952
#	78889
#	95243
#	113270
#	129767
#	146285
#	159967
#	177304
#	193552
#
# Disc length: 2921 seconds
#
# Revision: 1
# Processed by: cddbd v1.5.2PL0 Copyright (c) Steve Scherf et al.
# Submitted via: audiograbber 1.83.01
#
DISCID=8d0b670d
DTITLE=Dierks Bentley - Black
DYEAR=2016
DGENRE=Country
TTITLE0=Black
TTITLE1=Pick Up
TTITLE2=I'll Be The Moon (feat. Maren Morris)
TTITLE3=What The Hell Did I Say
TTITLE4=Somewhere On A Beach
TTITLE5=Freedom
TTITLE6=Why Do I Feel
TTITLE7=Roses And A Time Machine
TTITLE8=All The Way To Me
TTITLE9=Different For Girls (feat. Elle King)
TTITLE10=Mardi Gras (feat. Trombone Shorty)
TTITLE11=Light It Up
TTITLE12=Can't Be Replaced
EXTD=
EXTT0=
EXTT1=
EXTT2=
EXTT3=
EXTT4=
EXTT5=
EXTT6=
EXTT7=
EXTT8=
EXTT9=
EXTT10=
EXTT11=
EXTT12=
PLAYORDER=
